<?xml version="1.0" encoding="utf-8"?>
<!-- Generator: Adobe Illustrator 27.5.0, SVG Export Plug-In . SVG Version: 6.00 Build 0)  -->
<svg version="1.1" xmlns="http://www.w3.org/2000/svg" xmlns:xlink="http://www.w3.org/1999/xlink" x="0px" y="0px"
	 viewBox="0 0 4975 4975" style="enable-background:new 0 0 4975 4975;" xml:space="preserve">
<g id="Layer_1">
	
		<radialGradient id="SVGID_1_" cx="2888.0044" cy="2347.9795" r="605.9434" gradientTransform="matrix(6.6166 0 0 5.9093 -16621.2695 -11387.415)" gradientUnits="userSpaceOnUse">
		<stop  offset="0.6061" style="stop-color:#FFFFFF"/>
		<stop  offset="0.6831" style="stop-color:#FAFAFB"/>
		<stop  offset="0.7713" style="stop-color:#ECEDED"/>
		<stop  offset="0.8651" style="stop-color:#D5D6D8"/>
		<stop  offset="0.9622" style="stop-color:#B6B7BA"/>
		<stop  offset="1" style="stop-color:#A7A9AC"/>
	</radialGradient>
	<rect style="fill:url(#SVGID_1_);" width="4975" height="4975"/>
</g>
<g id="Isolation_Mode">
	<g>
		<g>
			<defs>
				
					<ellipse id="SVGID_00000146472150809224236060000008842365034422227896_" cx="2489.61" cy="3910.992" rx="1078.167" ry="153.243"/>
			</defs>
			<clipPath id="SVGID_00000145777518915775881900000017091056618537456566_">
				<use xlink:href="#SVGID_00000146472150809224236060000008842365034422227896_"  style="overflow:visible;"/>
			</clipPath>
			
				<rect x="1411.444" y="3757.748" style="clip-path:url(#SVGID_00000145777518915775881900000017091056618537456566_);fill:#FFFFFF;" width="2156.333" height="306.486"/>
			
				<ellipse style="clip-path:url(#SVGID_00000145777518915775881900000017091056618537456566_);fill:#FFFFFF;" cx="2489.611" cy="3910.991" rx="770.041" ry="138.649"/>
			
				<ellipse style="clip-path:url(#SVGID_00000145777518915775881900000017091056618537456566_);fill:#FFFFFF;" cx="2489.611" cy="3910.991" rx="765.714" ry="137.87"/>
			
				<ellipse style="clip-path:url(#SVGID_00000145777518915775881900000017091056618537456566_);fill:#FFFFFF;" cx="2489.61" cy="3910.991" rx="761.389" ry="137.092"/>
			
				<ellipse style="clip-path:url(#SVGID_00000145777518915775881900000017091056618537456566_);fill:#FFFFFF;" cx="2489.61" cy="3910.991" rx="757.063" ry="136.313"/>
			
				<ellipse style="clip-path:url(#SVGID_00000145777518915775881900000017091056618537456566_);fill:#FEFEFE;" cx="2489.61" cy="3910.991" rx="752.736" ry="135.533"/>
			
				<ellipse style="clip-path:url(#SVGID_00000145777518915775881900000017091056618537456566_);fill:#FEFEFE;" cx="2489.61" cy="3910.991" rx="748.41" ry="134.755"/>
			
				<ellipse style="clip-path:url(#SVGID_00000145777518915775881900000017091056618537456566_);fill:#FEFEFE;" cx="2489.61" cy="3910.991" rx="744.084" ry="133.976"/>
			
				<ellipse style="clip-path:url(#SVGID_00000145777518915775881900000017091056618537456566_);fill:#FDFDFD;" cx="2489.61" cy="3910.991" rx="739.758" ry="133.197"/>
			
				<ellipse style="clip-path:url(#SVGID_00000145777518915775881900000017091056618537456566_);fill:#FDFDFD;" cx="2489.61" cy="3910.991" rx="735.432" ry="132.418"/>
			
				<ellipse style="clip-path:url(#SVGID_00000145777518915775881900000017091056618537456566_);fill:#FCFDFD;" cx="2489.611" cy="3910.991" rx="731.106" ry="131.639"/>
			
				<ellipse style="clip-path:url(#SVGID_00000145777518915775881900000017091056618537456566_);fill:#FCFCFC;" cx="2489.611" cy="3910.991" rx="726.78" ry="130.86"/>
			
				<ellipse style="clip-path:url(#SVGID_00000145777518915775881900000017091056618537456566_);fill:#FCFCFC;" cx="2489.61" cy="3910.991" rx="722.454" ry="130.081"/>
			
				<ellipse style="clip-path:url(#SVGID_00000145777518915775881900000017091056618537456566_);fill:#FBFBFB;" cx="2489.61" cy="3910.991" rx="718.128" ry="129.302"/>
			
				<ellipse style="clip-path:url(#SVGID_00000145777518915775881900000017091056618537456566_);fill:#FBFBFB;" cx="2489.61" cy="3910.991" rx="713.802" ry="128.523"/>
			
				<ellipse style="clip-path:url(#SVGID_00000145777518915775881900000017091056618537456566_);fill:#FAFAFB;" cx="2489.61" cy="3910.991" rx="709.476" ry="127.744"/>
			
				<ellipse style="clip-path:url(#SVGID_00000145777518915775881900000017091056618537456566_);fill:#FAFAFA;" cx="2489.61" cy="3910.991" rx="705.149" ry="126.966"/>
			
				<ellipse style="clip-path:url(#SVGID_00000145777518915775881900000017091056618537456566_);fill:#F9FAFA;" cx="2489.61" cy="3910.991" rx="700.824" ry="126.187"/>
			
				<ellipse style="clip-path:url(#SVGID_00000145777518915775881900000017091056618537456566_);fill:#F9F9F9;" cx="2489.61" cy="3910.991" rx="696.497" ry="125.407"/>
			
				<ellipse style="clip-path:url(#SVGID_00000145777518915775881900000017091056618537456566_);fill:#F9F9F9;" cx="2489.611" cy="3910.991" rx="692.172" ry="124.629"/>
			
				<ellipse style="clip-path:url(#SVGID_00000145777518915775881900000017091056618537456566_);fill:#F8F8F9;" cx="2489.611" cy="3910.991" rx="687.845" ry="123.85"/>
			
				<ellipse style="clip-path:url(#SVGID_00000145777518915775881900000017091056618537456566_);fill:#F8F8F8;" cx="2489.611" cy="3910.991" rx="683.519" ry="123.071"/>
			
				<ellipse style="clip-path:url(#SVGID_00000145777518915775881900000017091056618537456566_);fill:#F7F7F8;" cx="2489.61" cy="3910.991" rx="679.193" ry="122.292"/>
			
				<ellipse style="clip-path:url(#SVGID_00000145777518915775881900000017091056618537456566_);fill:#F7F7F7;" cx="2489.61" cy="3910.991" rx="674.867" ry="121.513"/>
			
				<ellipse style="clip-path:url(#SVGID_00000145777518915775881900000017091056618537456566_);fill:#F6F7F7;" cx="2489.61" cy="3910.991" rx="670.541" ry="120.734"/>
			
				<ellipse style="clip-path:url(#SVGID_00000145777518915775881900000017091056618537456566_);fill:#F6F6F7;" cx="2489.61" cy="3910.991" rx="666.215" ry="119.955"/>
			
				<ellipse style="clip-path:url(#SVGID_00000145777518915775881900000017091056618537456566_);fill:#F5F6F6;" cx="2489.61" cy="3910.991" rx="661.889" ry="119.176"/>
			
				<ellipse style="clip-path:url(#SVGID_00000145777518915775881900000017091056618537456566_);fill:#F5F5F6;" cx="2489.61" cy="3910.991" rx="657.563" ry="118.397"/>
			
				<ellipse style="clip-path:url(#SVGID_00000145777518915775881900000017091056618537456566_);fill:#F4F5F5;" cx="2489.61" cy="3910.991" rx="653.237" ry="117.618"/>
			
				<ellipse style="clip-path:url(#SVGID_00000145777518915775881900000017091056618537456566_);fill:#F4F4F5;" cx="2489.611" cy="3910.991" rx="648.911" ry="116.84"/>
			
				<ellipse style="clip-path:url(#SVGID_00000145777518915775881900000017091056618537456566_);fill:#F4F4F4;" cx="2489.611" cy="3910.991" rx="644.585" ry="116.061"/>
			
				<ellipse style="clip-path:url(#SVGID_00000145777518915775881900000017091056618537456566_);fill:#F3F3F4;" cx="2489.611" cy="3910.991" rx="640.258" ry="115.281"/>
			
				<ellipse style="clip-path:url(#SVGID_00000145777518915775881900000017091056618537456566_);fill:#F3F3F3;" cx="2489.61" cy="3910.991" rx="635.933" ry="114.503"/>
			
				<ellipse style="clip-path:url(#SVGID_00000145777518915775881900000017091056618537456566_);fill:#F2F3F3;" cx="2489.61" cy="3910.991" rx="631.606" ry="113.724"/>
			
				<ellipse style="clip-path:url(#SVGID_00000145777518915775881900000017091056618537456566_);fill:#F2F2F3;" cx="2489.61" cy="3910.991" rx="627.28" ry="112.944"/>
			
				<ellipse style="clip-path:url(#SVGID_00000145777518915775881900000017091056618537456566_);fill:#F1F2F2;" cx="2489.61" cy="3910.991" rx="622.954" ry="112.166"/>
			
				<ellipse style="clip-path:url(#SVGID_00000145777518915775881900000017091056618537456566_);fill:#F1F1F2;" cx="2489.61" cy="3910.991" rx="618.628" ry="111.387"/>
			
				<ellipse style="clip-path:url(#SVGID_00000145777518915775881900000017091056618537456566_);fill:#F0F1F1;" cx="2489.61" cy="3910.991" rx="614.302" ry="110.608"/>
			
				<ellipse style="clip-path:url(#SVGID_00000145777518915775881900000017091056618537456566_);fill:#F0F0F1;" cx="2489.61" cy="3910.991" rx="609.976" ry="109.829"/>
			
				<ellipse style="clip-path:url(#SVGID_00000145777518915775881900000017091056618537456566_);fill:#EFF0F0;" cx="2489.611" cy="3910.991" rx="605.65" ry="109.05"/>
			
				<ellipse style="clip-path:url(#SVGID_00000145777518915775881900000017091056618537456566_);fill:#EEEFF0;" cx="2489.611" cy="3910.991" rx="601.324" ry="108.271"/>
			
				<ellipse style="clip-path:url(#SVGID_00000145777518915775881900000017091056618537456566_);fill:#EEEEEF;" cx="2489.611" cy="3910.991" rx="596.998" ry="107.492"/>
			
				<ellipse style="clip-path:url(#SVGID_00000145777518915775881900000017091056618537456566_);fill:#EDEEEF;" cx="2489.61" cy="3910.991" rx="592.672" ry="106.713"/>
			
				<ellipse style="clip-path:url(#SVGID_00000145777518915775881900000017091056618537456566_);fill:#EDEDEE;" cx="2489.61" cy="3910.991" rx="588.346" ry="105.935"/>
			
				<ellipse style="clip-path:url(#SVGID_00000145777518915775881900000017091056618537456566_);fill:#ECEDEE;" cx="2489.61" cy="3910.991" rx="584.02" ry="105.155"/>
			
				<ellipse style="clip-path:url(#SVGID_00000145777518915775881900000017091056618537456566_);fill:#ECECED;" cx="2489.61" cy="3910.991" rx="579.693" ry="104.377"/>
			
				<ellipse style="clip-path:url(#SVGID_00000145777518915775881900000017091056618537456566_);fill:#EBECED;" cx="2489.61" cy="3910.991" rx="575.368" ry="103.598"/>
			
				<ellipse style="clip-path:url(#SVGID_00000145777518915775881900000017091056618537456566_);fill:#EBEBEC;" cx="2489.61" cy="3910.991" rx="571.041" ry="102.818"/>
			
				<ellipse style="clip-path:url(#SVGID_00000145777518915775881900000017091056618537456566_);fill:#EAEBEB;" cx="2489.61" cy="3910.991" rx="566.715" ry="102.04"/>
			
				<ellipse style="clip-path:url(#SVGID_00000145777518915775881900000017091056618537456566_);fill:#E9EAEB;" cx="2489.611" cy="3910.991" rx="562.389" ry="101.261"/>
			
				<ellipse style="clip-path:url(#SVGID_00000145777518915775881900000017091056618537456566_);fill:#E9E9EA;" cx="2489.611" cy="3910.991" rx="558.063" ry="100.481"/>
			
				<ellipse style="clip-path:url(#SVGID_00000145777518915775881900000017091056618537456566_);fill:#E8E9EA;" cx="2489.61" cy="3910.991" rx="553.737" ry="99.703"/>
			
				<ellipse style="clip-path:url(#SVGID_00000145777518915775881900000017091056618537456566_);fill:#E7E8E9;" cx="2489.61" cy="3910.991" rx="549.411" ry="98.924"/>
			
				<ellipse style="clip-path:url(#SVGID_00000145777518915775881900000017091056618537456566_);fill:#E7E7E8;" cx="2489.61" cy="3910.991" rx="545.085" ry="98.146"/>
			
				<ellipse style="clip-path:url(#SVGID_00000145777518915775881900000017091056618537456566_);fill:#E6E7E8;" cx="2489.61" cy="3910.991" rx="540.759" ry="97.366"/>
			
				<ellipse style="clip-path:url(#SVGID_00000145777518915775881900000017091056618537456566_);fill:#E5E6E7;" cx="2489.61" cy="3910.991" rx="536.433" ry="96.587"/>
			
				<ellipse style="clip-path:url(#SVGID_00000145777518915775881900000017091056618537456566_);fill:#E5E6E7;" cx="2489.61" cy="3910.991" rx="532.107" ry="95.809"/>
			
				<ellipse style="clip-path:url(#SVGID_00000145777518915775881900000017091056618537456566_);fill:#E4E5E6;" cx="2489.61" cy="3910.991" rx="527.781" ry="95.029"/>
			
				<ellipse style="clip-path:url(#SVGID_00000145777518915775881900000017091056618537456566_);fill:#E3E4E5;" cx="2489.611" cy="3910.991" rx="523.455" ry="94.25"/>
			
				<ellipse style="clip-path:url(#SVGID_00000145777518915775881900000017091056618537456566_);fill:#E3E4E5;" cx="2489.611" cy="3910.991" rx="519.129" ry="93.472"/>
			
				<ellipse style="clip-path:url(#SVGID_00000145777518915775881900000017091056618537456566_);fill:#E2E3E4;" cx="2489.611" cy="3910.991" rx="514.802" ry="92.692"/>
			
				<ellipse style="clip-path:url(#SVGID_00000145777518915775881900000017091056618537456566_);fill:#E1E2E3;" cx="2489.61" cy="3910.991" rx="510.477" ry="91.914"/>
			
				<ellipse style="clip-path:url(#SVGID_00000145777518915775881900000017091056618537456566_);fill:#E1E2E3;" cx="2489.61" cy="3910.991" rx="506.15" ry="91.135"/>
			
				<ellipse style="clip-path:url(#SVGID_00000145777518915775881900000017091056618537456566_);fill:#E0E1E2;" cx="2489.61" cy="3910.991" rx="501.824" ry="90.355"/>
			
				<ellipse style="clip-path:url(#SVGID_00000145777518915775881900000017091056618537456566_);fill:#DFE0E1;" cx="2489.61" cy="3910.991" rx="497.498" ry="89.577"/>
			
				<ellipse style="clip-path:url(#SVGID_00000145777518915775881900000017091056618537456566_);fill:#DEDFE1;" cx="2489.61" cy="3910.991" rx="493.172" ry="88.798"/>
			
				<ellipse style="clip-path:url(#SVGID_00000145777518915775881900000017091056618537456566_);fill:#DEDFE0;" cx="2489.61" cy="3910.991" rx="488.846" ry="88.019"/>
			
				<ellipse style="clip-path:url(#SVGID_00000145777518915775881900000017091056618537456566_);fill:#DDDEDF;" cx="2489.61" cy="3910.991" rx="484.52" ry="87.24"/>
			
				<ellipse style="clip-path:url(#SVGID_00000145777518915775881900000017091056618537456566_);fill:#DCDDDF;" cx="2489.611" cy="3910.991" rx="480.194" ry="86.461"/>
			
				<ellipse style="clip-path:url(#SVGID_00000145777518915775881900000017091056618537456566_);fill:#DBDDDE;" cx="2489.611" cy="3910.991" rx="475.868" ry="85.683"/>
			
				<ellipse style="clip-path:url(#SVGID_00000145777518915775881900000017091056618537456566_);fill:#DBDCDD;" cx="2489.61" cy="3910.991" rx="471.542" ry="84.903"/>
			
				<ellipse style="clip-path:url(#SVGID_00000145777518915775881900000017091056618537456566_);fill:#DADBDD;" cx="2489.61" cy="3910.991" rx="467.216" ry="84.124"/>
			
				<ellipse style="clip-path:url(#SVGID_00000145777518915775881900000017091056618537456566_);fill:#D9DADC;" cx="2489.61" cy="3910.991" rx="462.89" ry="83.346"/>
			
				<ellipse style="clip-path:url(#SVGID_00000145777518915775881900000017091056618537456566_);fill:#D8DADB;" cx="2489.61" cy="3910.991" rx="458.563" ry="82.566"/>
			
				<ellipse style="clip-path:url(#SVGID_00000145777518915775881900000017091056618537456566_);fill:#D8D9DA;" cx="2489.61" cy="3910.991" rx="454.237" ry="81.787"/>
			
				<ellipse style="clip-path:url(#SVGID_00000145777518915775881900000017091056618537456566_);fill:#D7D8DA;" cx="2489.61" cy="3910.991" rx="449.911" ry="81.009"/>
			
				<ellipse style="clip-path:url(#SVGID_00000145777518915775881900000017091056618537456566_);fill:#D6D7D9;" cx="2489.61" cy="3910.991" rx="445.585" ry="80.229"/>
			
				<ellipse style="clip-path:url(#SVGID_00000145777518915775881900000017091056618537456566_);fill:#D5D7D8;" cx="2489.61" cy="3910.991" rx="441.259" ry="79.451"/>
			
				<ellipse style="clip-path:url(#SVGID_00000145777518915775881900000017091056618537456566_);fill:#D4D6D7;" cx="2489.611" cy="3910.991" rx="436.933" ry="78.672"/>
			
				<ellipse style="clip-path:url(#SVGID_00000145777518915775881900000017091056618537456566_);fill:#D4D5D7;" cx="2489.611" cy="3910.991" rx="432.607" ry="77.893"/>
			
				<ellipse style="clip-path:url(#SVGID_00000145777518915775881900000017091056618537456566_);fill:#D3D4D6;" cx="2489.61" cy="3910.991" rx="428.281" ry="77.114"/>
			
				<ellipse style="clip-path:url(#SVGID_00000145777518915775881900000017091056618537456566_);fill:#D2D3D5;" cx="2489.61" cy="3910.991" rx="423.955" ry="76.335"/>
			
				<ellipse style="clip-path:url(#SVGID_00000145777518915775881900000017091056618537456566_);fill:#D1D3D4;" cx="2489.61" cy="3910.991" rx="419.629" ry="75.556"/>
			
				<ellipse style="clip-path:url(#SVGID_00000145777518915775881900000017091056618537456566_);fill:#D0D2D3;" cx="2489.61" cy="3910.991" rx="415.303" ry="74.777"/>
			
				<ellipse style="clip-path:url(#SVGID_00000145777518915775881900000017091056618537456566_);fill:#CFD1D3;" cx="2489.61" cy="3910.991" rx="410.977" ry="73.998"/>
			
				<ellipse style="clip-path:url(#SVGID_00000145777518915775881900000017091056618537456566_);fill:#CFD0D2;" cx="2489.61" cy="3910.991" rx="406.651" ry="73.22"/>
			
				<ellipse style="clip-path:url(#SVGID_00000145777518915775881900000017091056618537456566_);fill:#CECFD1;" cx="2489.61" cy="3910.991" rx="402.325" ry="72.44"/>
			
				<ellipse style="clip-path:url(#SVGID_00000145777518915775881900000017091056618537456566_);fill:#CDCED0;" cx="2489.61" cy="3910.991" rx="397.998" ry="71.661"/>
			
				<ellipse style="clip-path:url(#SVGID_00000145777518915775881900000017091056618537456566_);fill:#CCCECF;" cx="2489.611" cy="3910.991" rx="393.672" ry="70.883"/>
			
				<ellipse style="clip-path:url(#SVGID_00000145777518915775881900000017091056618537456566_);fill:#CBCDCF;" cx="2489.611" cy="3910.991" rx="389.346" ry="70.104"/>
			
				<ellipse style="clip-path:url(#SVGID_00000145777518915775881900000017091056618537456566_);fill:#CACCCE;" cx="2489.61" cy="3910.991" rx="385.021" ry="69.324"/>
			
				<ellipse style="clip-path:url(#SVGID_00000145777518915775881900000017091056618537456566_);fill:#C9CBCD;" cx="2489.61" cy="3910.991" rx="380.694" ry="68.546"/>
			
				<ellipse style="clip-path:url(#SVGID_00000145777518915775881900000017091056618537456566_);fill:#C8CACC;" cx="2489.61" cy="3910.991" rx="376.368" ry="67.767"/>
			
				<ellipse style="clip-path:url(#SVGID_00000145777518915775881900000017091056618537456566_);fill:#C7C9CB;" cx="2489.61" cy="3910.991" rx="372.042" ry="66.988"/>
			
				<ellipse style="clip-path:url(#SVGID_00000145777518915775881900000017091056618537456566_);fill:#C7C8CA;" cx="2489.61" cy="3910.991" rx="367.716" ry="66.209"/>
			
				<ellipse style="clip-path:url(#SVGID_00000145777518915775881900000017091056618537456566_);fill:#C6C7C9;" cx="2489.61" cy="3910.991" rx="363.39" ry="65.43"/>
			
				<ellipse style="clip-path:url(#SVGID_00000145777518915775881900000017091056618537456566_);fill:#C5C6C9;" cx="2489.61" cy="3910.991" rx="359.064" ry="64.651"/>
			
				<ellipse style="clip-path:url(#SVGID_00000145777518915775881900000017091056618537456566_);fill:#C4C6C8;" cx="2489.611" cy="3910.991" rx="354.738" ry="63.872"/>
			
				<ellipse style="clip-path:url(#SVGID_00000145777518915775881900000017091056618537456566_);fill:#C3C5C7;" cx="2489.611" cy="3910.991" rx="350.412" ry="63.093"/>
			
				<ellipse style="clip-path:url(#SVGID_00000145777518915775881900000017091056618537456566_);fill:#C2C4C6;" cx="2489.61" cy="3910.991" rx="346.086" ry="62.314"/>
			
				<ellipse style="clip-path:url(#SVGID_00000145777518915775881900000017091056618537456566_);fill:#C1C3C5;" cx="2489.61" cy="3910.991" rx="341.76" ry="61.535"/>
			
				<ellipse style="clip-path:url(#SVGID_00000145777518915775881900000017091056618537456566_);fill:#C0C2C4;" cx="2489.61" cy="3910.991" rx="337.434" ry="60.757"/>
			
				<ellipse style="clip-path:url(#SVGID_00000145777518915775881900000017091056618537456566_);fill:#BFC1C3;" cx="2489.61" cy="3910.991" rx="333.107" ry="59.978"/>
			
				<ellipse style="clip-path:url(#SVGID_00000145777518915775881900000017091056618537456566_);fill:#BEC0C2;" cx="2489.61" cy="3910.991" rx="328.781" ry="59.198"/>
			
				<ellipse style="clip-path:url(#SVGID_00000145777518915775881900000017091056618537456566_);fill:#BDBFC1;" cx="2489.61" cy="3910.991" rx="324.455" ry="58.42"/>
			
				<ellipse style="clip-path:url(#SVGID_00000145777518915775881900000017091056618537456566_);fill:#BCBEC0;" cx="2489.61" cy="3910.991" rx="320.129" ry="57.641"/>
			
				<ellipse style="clip-path:url(#SVGID_00000145777518915775881900000017091056618537456566_);fill:#BBBDBF;" cx="2489.61" cy="3910.991" rx="315.803" ry="56.862"/>
			
				<ellipse style="clip-path:url(#SVGID_00000145777518915775881900000017091056618537456566_);fill:#BABCBE;" cx="2489.611" cy="3910.991" rx="311.477" ry="56.083"/>
			
				<ellipse style="clip-path:url(#SVGID_00000145777518915775881900000017091056618537456566_);fill:#B9BBBD;" cx="2489.611" cy="3910.991" rx="307.151" ry="55.304"/>
			
				<ellipse style="clip-path:url(#SVGID_00000145777518915775881900000017091056618537456566_);fill:#B8BABC;" cx="2489.61" cy="3910.991" rx="302.825" ry="54.525"/>
			
				<ellipse style="clip-path:url(#SVGID_00000145777518915775881900000017091056618537456566_);fill:#B7B9BB;" cx="2489.61" cy="3910.991" rx="298.499" ry="53.746"/>
			
				<ellipse style="clip-path:url(#SVGID_00000145777518915775881900000017091056618537456566_);fill:#B6B8BA;" cx="2489.61" cy="3910.991" rx="294.173" ry="52.967"/>
			
				<ellipse style="clip-path:url(#SVGID_00000145777518915775881900000017091056618537456566_);fill:#B5B7BA;" cx="2489.61" cy="3910.991" rx="289.847" ry="52.188"/>
			
				<ellipse style="clip-path:url(#SVGID_00000145777518915775881900000017091056618537456566_);fill:#B4B6B9;" cx="2489.61" cy="3910.991" rx="285.521" ry="51.409"/>
			
				<ellipse style="clip-path:url(#SVGID_00000145777518915775881900000017091056618537456566_);fill:#B3B5B8;" cx="2489.61" cy="3910.991" rx="281.195" ry="50.631"/>
			
				<ellipse style="clip-path:url(#SVGID_00000145777518915775881900000017091056618537456566_);fill:#B2B4B7;" cx="2489.61" cy="3910.991" rx="276.869" ry="49.852"/>
			
				<ellipse style="clip-path:url(#SVGID_00000145777518915775881900000017091056618537456566_);fill:#B1B3B6;" cx="2489.611" cy="3910.991" rx="272.543" ry="49.072"/>
			
				<ellipse style="clip-path:url(#SVGID_00000145777518915775881900000017091056618537456566_);fill:#B0B2B5;" cx="2489.611" cy="3910.991" rx="268.216" ry="48.294"/>
			
				<ellipse style="clip-path:url(#SVGID_00000145777518915775881900000017091056618537456566_);fill:#AFB1B4;" cx="2489.611" cy="3910.991" rx="263.89" ry="47.515"/>
			
				<ellipse style="clip-path:url(#SVGID_00000145777518915775881900000017091056618537456566_);fill:#AEB0B3;" cx="2489.61" cy="3910.991" rx="259.564" ry="46.735"/>
			
				<ellipse style="clip-path:url(#SVGID_00000145777518915775881900000017091056618537456566_);fill:#ADAFB2;" cx="2489.61" cy="3910.991" rx="255.238" ry="45.957"/>
			
				<ellipse style="clip-path:url(#SVGID_00000145777518915775881900000017091056618537456566_);fill:#ACAEB1;" cx="2489.61" cy="3910.991" rx="250.912" ry="45.178"/>
			
				<ellipse style="clip-path:url(#SVGID_00000145777518915775881900000017091056618537456566_);fill:#ABADB0;" cx="2489.61" cy="3910.991" rx="246.586" ry="44.399"/>
			
				<ellipse style="clip-path:url(#SVGID_00000145777518915775881900000017091056618537456566_);fill:#AAACAF;" cx="2489.61" cy="3910.991" rx="242.26" ry="43.62"/>
			
				<ellipse style="clip-path:url(#SVGID_00000145777518915775881900000017091056618537456566_);fill:#A9ABAE;" cx="2489.61" cy="3910.991" rx="237.934" ry="42.841"/>
			
				<ellipse style="clip-path:url(#SVGID_00000145777518915775881900000017091056618537456566_);fill:#A8AAAD;" cx="2489.61" cy="3910.991" rx="233.608" ry="42.063"/>
			
				<ellipse style="clip-path:url(#SVGID_00000145777518915775881900000017091056618537456566_);fill:#A7A9AC;" cx="2489.611" cy="3910.991" rx="229.282" ry="41.283"/>
			
				<ellipse style="clip-path:url(#SVGID_00000145777518915775881900000017091056618537456566_);fill:#A6A8AA;" cx="2489.611" cy="3910.991" rx="224.956" ry="40.504"/>
			
				<ellipse style="clip-path:url(#SVGID_00000145777518915775881900000017091056618537456566_);fill:#A5A7A9;" cx="2489.611" cy="3910.991" rx="220.63" ry="39.726"/>
			
				<ellipse style="clip-path:url(#SVGID_00000145777518915775881900000017091056618537456566_);fill:#A4A6A8;" cx="2489.61" cy="3910.991" rx="216.304" ry="38.946"/>
			
				<ellipse style="clip-path:url(#SVGID_00000145777518915775881900000017091056618537456566_);fill:#A3A5A7;" cx="2489.61" cy="3910.991" rx="211.978" ry="38.168"/>
			
				<ellipse style="clip-path:url(#SVGID_00000145777518915775881900000017091056618537456566_);fill:#A2A4A6;" cx="2489.61" cy="3910.991" rx="207.651" ry="37.389"/>
			
				<ellipse style="clip-path:url(#SVGID_00000145777518915775881900000017091056618537456566_);fill:#A1A3A5;" cx="2489.61" cy="3910.991" rx="203.325" ry="36.609"/>
			
				<ellipse style="clip-path:url(#SVGID_00000145777518915775881900000017091056618537456566_);fill:#9FA2A4;" cx="2489.61" cy="3910.991" rx="198.999" ry="35.831"/>
			
				<ellipse style="clip-path:url(#SVGID_00000145777518915775881900000017091056618537456566_);fill:#9EA1A3;" cx="2489.61" cy="3910.991" rx="194.673" ry="35.052"/>
			
				<ellipse style="clip-path:url(#SVGID_00000145777518915775881900000017091056618537456566_);fill:#9D9FA2;" cx="2489.61" cy="3910.991" rx="190.347" ry="34.272"/>
			
				<ellipse style="clip-path:url(#SVGID_00000145777518915775881900000017091056618537456566_);fill:#9C9EA1;" cx="2489.611" cy="3910.991" rx="186.021" ry="33.494"/>
			
				<ellipse style="clip-path:url(#SVGID_00000145777518915775881900000017091056618537456566_);fill:#9B9DA0;" cx="2489.611" cy="3910.991" rx="181.695" ry="32.715"/>
			
				<ellipse style="clip-path:url(#SVGID_00000145777518915775881900000017091056618537456566_);fill:#9A9C9F;" cx="2489.61" cy="3910.991" rx="177.369" ry="31.937"/>
			
				<ellipse style="clip-path:url(#SVGID_00000145777518915775881900000017091056618537456566_);fill:#999B9E;" cx="2489.61" cy="3910.991" rx="173.043" ry="31.157"/>
			
				<ellipse style="clip-path:url(#SVGID_00000145777518915775881900000017091056618537456566_);fill:#989A9D;" cx="2489.61" cy="3910.991" rx="168.717" ry="30.378"/>
			
				<ellipse style="clip-path:url(#SVGID_00000145777518915775881900000017091056618537456566_);fill:#97999C;" cx="2489.61" cy="3910.991" rx="164.391" ry="29.6"/>
			
				<ellipse style="clip-path:url(#SVGID_00000145777518915775881900000017091056618537456566_);fill:#96989B;" cx="2489.61" cy="3910.991" rx="160.064" ry="28.82"/>
			
				<ellipse style="clip-path:url(#SVGID_00000145777518915775881900000017091056618537456566_);fill:#95979A;" cx="2489.61" cy="3910.991" rx="155.739" ry="28.041"/>
			
				<ellipse style="clip-path:url(#SVGID_00000145777518915775881900000017091056618537456566_);fill:#949698;" cx="2489.61" cy="3910.991" rx="151.412" ry="27.263"/>
			
				<ellipse style="clip-path:url(#SVGID_00000145777518915775881900000017091056618537456566_);fill:#939597;" cx="2489.61" cy="3910.991" rx="147.086" ry="26.483"/>
			
				<ellipse style="clip-path:url(#SVGID_00000145777518915775881900000017091056618537456566_);fill:#929496;" cx="2489.611" cy="3910.991" rx="142.76" ry="25.705"/>
			
				<ellipse style="clip-path:url(#SVGID_00000145777518915775881900000017091056618537456566_);fill:#909395;" cx="2489.611" cy="3910.991" rx="138.434" ry="24.926"/>
			
				<ellipse style="clip-path:url(#SVGID_00000145777518915775881900000017091056618537456566_);fill:#8F9194;" cx="2489.61" cy="3910.991" rx="134.108" ry="24.146"/>
			
				<ellipse style="clip-path:url(#SVGID_00000145777518915775881900000017091056618537456566_);fill:#8E9093;" cx="2489.61" cy="3910.991" rx="129.782" ry="23.368"/>
			
				<ellipse style="clip-path:url(#SVGID_00000145777518915775881900000017091056618537456566_);fill:#8D8F92;" cx="2489.61" cy="3910.991" rx="125.456" ry="22.589"/>
			
				<ellipse style="clip-path:url(#SVGID_00000145777518915775881900000017091056618537456566_);fill:#8C8E91;" cx="2489.61" cy="3910.991" rx="121.13" ry="21.81"/>
			
				<ellipse style="clip-path:url(#SVGID_00000145777518915775881900000017091056618537456566_);fill:#8B8D90;" cx="2489.61" cy="3910.991" rx="116.804" ry="21.031"/>
			
				<ellipse style="clip-path:url(#SVGID_00000145777518915775881900000017091056618537456566_);fill:#8A8C8F;" cx="2489.61" cy="3910.991" rx="112.478" ry="20.252"/>
			
				<ellipse style="clip-path:url(#SVGID_00000145777518915775881900000017091056618537456566_);fill:#898B8D;" cx="2489.61" cy="3910.991" rx="108.152" ry="19.474"/>
			
				<ellipse style="clip-path:url(#SVGID_00000145777518915775881900000017091056618537456566_);fill:#888A8C;" cx="2489.611" cy="3910.991" rx="103.826" ry="18.694"/>
			
				<ellipse style="clip-path:url(#SVGID_00000145777518915775881900000017091056618537456566_);fill:#87898B;" cx="2489.611" cy="3910.991" rx="99.5" ry="17.915"/>
			
				<ellipse style="clip-path:url(#SVGID_00000145777518915775881900000017091056618537456566_);fill:#86878A;" cx="2489.611" cy="3910.991" rx="95.174" ry="17.137"/>
			
				<ellipse style="clip-path:url(#SVGID_00000145777518915775881900000017091056618537456566_);fill:#848689;" cx="2489.61" cy="3910.991" rx="90.848" ry="16.357"/>
			
				<ellipse style="clip-path:url(#SVGID_00000145777518915775881900000017091056618537456566_);fill:#838588;" cx="2489.61" cy="3910.991" rx="86.521" ry="15.578"/>
			
				<ellipse style="clip-path:url(#SVGID_00000145777518915775881900000017091056618537456566_);fill:#828487;" cx="2489.61" cy="3910.991" rx="82.195" ry="14.8"/>
			
				<ellipse style="clip-path:url(#SVGID_00000145777518915775881900000017091056618537456566_);fill:#818386;" cx="2489.61" cy="3910.991" rx="77.869" ry="14.021"/>
			
				<ellipse style="clip-path:url(#SVGID_00000145777518915775881900000017091056618537456566_);fill:#808284;" cx="2489.61" cy="3910.991" rx="73.543" ry="13.242"/>
			
				<ellipse style="clip-path:url(#SVGID_00000145777518915775881900000017091056618537456566_);fill:#7F8183;" cx="2489.61" cy="3910.991" rx="69.217" ry="12.463"/>
			
				<ellipse style="clip-path:url(#SVGID_00000145777518915775881900000017091056618537456566_);fill:#7E8082;" cx="2489.61" cy="3910.991" rx="64.891" ry="11.684"/>
			
				<ellipse style="clip-path:url(#SVGID_00000145777518915775881900000017091056618537456566_);fill:#7D7E81;" cx="2489.611" cy="3910.991" rx="60.565" ry="10.905"/>
			
				<ellipse style="clip-path:url(#SVGID_00000145777518915775881900000017091056618537456566_);fill:#7B7D80;" cx="2489.611" cy="3910.991" rx="56.239" ry="10.126"/>
			
				<ellipse style="clip-path:url(#SVGID_00000145777518915775881900000017091056618537456566_);fill:#7A7C7F;" cx="2489.61" cy="3910.991" rx="51.913" ry="9.347"/>
			
				<ellipse style="clip-path:url(#SVGID_00000145777518915775881900000017091056618537456566_);fill:#797B7D;" cx="2489.61" cy="3910.991" rx="47.587" ry="8.568"/>
			
				<ellipse style="clip-path:url(#SVGID_00000145777518915775881900000017091056618537456566_);fill:#787A7C;" cx="2489.61" cy="3910.991" rx="43.261" ry="7.789"/>
			<path style="clip-path:url(#SVGID_00000145777518915775881900000017091056618537456566_);fill:#77787B;" d="M2528.545,3910.991
				c0,3.872-17.432,7.011-38.935,7.011s-38.935-3.139-38.935-7.011s17.432-7.011,38.935-7.011S2528.545,3907.119,2528.545,3910.991z
				"/>
			<path style="clip-path:url(#SVGID_00000145777518915775881900000017091056618537456566_);fill:#76777A;" d="M2524.219,3910.991
				c0,3.441-15.494,6.231-34.608,6.231c-19.114,0-34.608-2.79-34.608-6.231s15.495-6.231,34.608-6.231
				C2508.725,3904.76,2524.219,3907.55,2524.219,3910.991z"/>
			<path style="clip-path:url(#SVGID_00000145777518915775881900000017091056618537456566_);fill:#747679;" d="M2519.893,3910.991
				c0,3.012-13.558,5.452-30.282,5.452s-30.283-2.44-30.283-5.452s13.558-5.452,30.283-5.452S2519.893,3907.979,2519.893,3910.991z"
				/>
			<path style="clip-path:url(#SVGID_00000145777518915775881900000017091056618537456566_);fill:#737577;" d="M2515.566,3910.991
				c0,2.581-11.621,4.674-25.956,4.674c-14.335,0-25.957-2.093-25.957-4.674s11.621-4.674,25.957-4.674
				C2503.945,3906.317,2515.566,3908.41,2515.566,3910.991z"/>
			<path style="clip-path:url(#SVGID_00000145777518915775881900000017091056618537456566_);fill:#727476;" d="M2511.24,3910.991
				c0,2.151-9.684,3.895-21.63,3.895s-21.63-1.743-21.63-3.895s9.684-3.895,21.63-3.895S2511.24,3908.84,2511.24,3910.991z"/>
			<path style="clip-path:url(#SVGID_00000145777518915775881900000017091056618537456566_);fill:#717275;" d="M2506.915,3910.991
				c0,1.721-7.748,3.115-17.305,3.115c-9.557,0-17.304-1.395-17.304-3.115s7.747-3.115,17.304-3.115
				C2499.167,3907.876,2506.915,3909.271,2506.915,3910.991z"/>
			<path style="clip-path:url(#SVGID_00000145777518915775881900000017091056618537456566_);fill:#707173;" d="M2502.589,3910.991
				c0,1.291-5.811,2.337-12.979,2.337c-7.167,0-12.978-1.046-12.978-2.337s5.811-2.337,12.978-2.337
				C2496.778,3908.654,2502.589,3909.7,2502.589,3910.991z"/>
			
				<ellipse style="clip-path:url(#SVGID_00000145777518915775881900000017091056618537456566_);fill:#6E7072;" cx="2489.61" cy="3910.991" rx="8.652" ry="1.558"/>
			<path style="clip-path:url(#SVGID_00000145777518915775881900000017091056618537456566_);fill:#6D6E71;" d="M2493.937,3910.991
				c0,0.431-1.937,0.779-4.326,0.779c-2.389,0-4.326-0.349-4.326-0.779s1.937-0.779,4.326-0.779
				C2492,3910.212,2493.937,3910.561,2493.937,3910.991z"/>
		</g>
	</g>
	<path d="M2512.079,3573.678c-30.452,0-58.1-7.448-82.772-22.355c-40.468-24.452-70.375-68.978-86.487-128.762
		c-11.322-42.005-12.164-77.922-12.194-79.431c-0.282-14.011,6.416-27.247,17.873-35.317c11.458-8.071,26.176-9.923,39.273-4.94
		c0.644,0.245,65.616,24.857,137.618,45.264c41.69,11.816,73.109,18.692,96.613,22.552c-27.883-10.149-61.301-20.409-96.43-31.195
		c-65.326-20.056-132.878-40.795-186.616-66.914c-31.857-15.484-55.69-31.388-72.863-48.619
		c-30.332-30.436-35.106-60.969-33.771-81.223c0.021-0.313,0.045-0.625,0.073-0.938c1.405-15.898,9.872-30.076,23.229-38.898
		c34.924-23.064,88.961-8.342,247.037,43.207c56.979,18.582,115.896,37.796,165.92,50.287c11.056,2.762,20.836,4.972,29.485,6.735
		c-5.253-2.255-11.011-4.63-17.313-7.119c-42.971-16.98-96.196-33.737-152.546-51.476c-68.289-21.498-138.901-43.727-192.645-67.306
		c-52.463-23.019-112.415-56.526-110.331-111.809c0.76-20.136,10.102-37.481,26.307-48.841
		c26.529-18.596,67.031-19.121,139.796-1.821c51.994,12.364,115.613,32.769,177.137,52.501
		c55.99,17.959,113.888,36.527,161.077,48.378c22.571,5.667,39.483,8.949,52.063,10.79c-7.959-4.214-18.51-9.107-32.463-14.577
		c-37.191-14.577-86.051-28.624-137.779-43.494c-104.465-30.032-222.868-64.07-301.843-118.403
		c-47.624-32.766-77.524-68.956-94.1-113.896c-14.549-39.446-16.982-81.255-19.558-125.518
		c-4.512-77.518-10.119-173.844-83.209-308.774c-99.922-124.888-167.66-253.775-201.356-383.139
		c-32.34-124.166-32.555-244.609-0.638-357.987c29.27-103.972,84.042-196.737,162.792-275.717
		c78.266-78.493,176.074-139.144,290.707-180.266c0.046-0.017,0.091-0.033,0.138-0.05c50.491-17.916,110.839-29.48,174.521-33.444
		c73.034-4.545,145.975,0.964,216.791,16.375c177.209,38.567,325.075,136.774,427.612,284.007c0.075,0.108,0.15,0.217,0.225,0.327
		c61.264,89.757,101.769,180.736,120.393,270.412c17.478,84.155,16.174,169.343-3.876,253.199
		c-34.227,143.146-121.624,284.028-267.193,430.693c-2.259,2.459-27.707,30.745-59.438,90.385
		c-30.616,57.546-73.475,156.807-103.836,302.988c-1.755,8.863-15.781,71.781-66.725,109.4
		c-51.514,40.932-129.646,46.801-204.536,15.39c-7.091-2.528-25.774-10.182-44.826-26.315
		c-30.94-26.202-47.879-61.734-48.985-102.755c-0.004-0.147-0.007-0.295-0.01-0.443c-0.051-3.124-5.142-313.904-5.142-436.519
		c0-33.356-47.831-71.994-90.033-106.083c-24.451-19.752-49.734-40.174-68.905-61.727c-20.921-23.519-32.021-54.198-31.259-86.388
		c0.688-29.069,11.254-56.578,28.263-73.586c0.584-0.584,1.186-1.151,1.803-1.7c34.127-30.334,65.88-27.749,86.504-20.241
		c21.402,7.793,37.01,22.987,50.78,36.393c3.166,3.082,7.181,6.991,10.845,10.249c2.588-7.416,5.203-17.199,7.035-24.062
		c5.983-22.396,12.764-47.779,27.75-69.111c20.986-29.875,52.371-43.774,90.753-40.208c34.273,3.188,60.977,20.021,77.223,48.678
		c11.8,20.815,15.959,44.23,19.301,63.046c0.298,1.678,0.628,3.531,0.979,5.449c6.221-6,12.887-13.194,17.45-18.12
		c12.994-14.027,26.431-28.532,42.143-39.287c32.031-21.926,59.309-17.783,76.547-10.445c0.112,0.047,0.224,0.096,0.335,0.144
		c33.465,14.587,55.268,41.738,61.394,76.452c14.652,83.03-63.35,187.817-94.34,217.723
		c-66.664,68.321-170.111,88.463-174.494,89.289c-22.885,4.318-44.933-10.742-49.245-33.627
		c-4.306-22.852,10.699-44.87,33.529-49.226l0,0c0.819-0.158,82.47-16.416,130.208-65.697c0.401-0.412,0.809-0.817,1.226-1.214
		c27.914-26.551,76.698-105.024,70.068-142.592c-0.842-4.776-2.426-8.269-7.435-11.417c-7.652,5.166-20.636,19.182-28.071,27.207
		c-23.066,24.901-51.379,55.458-89.727,55.46c-2.934,0-5.924-0.178-8.979-0.552c-13.805-1.69-39.078-9.305-53.245-41.31
		c-6.095-13.765-8.779-28.875-11.375-43.487c-7.318-41.204-11.413-41.585-21.302-42.504c-9.979-0.928-11.551,1.317-13.938,4.716
		c-6.38,9.083-11.108,26.783-15.28,42.398c-4.063,15.206-8.263,30.93-15.046,45.116c-10.835,22.657-26.635,37.38-46.964,43.757
		c-14.483,4.543-37.12,6.729-62.721-8.677c-13.029-7.842-23.878-18.404-33.45-27.722c-5.318-5.177-13.724-13.361-18.705-16.494
		c-0.534,0.36-1.178,0.828-1.931,1.429c-3.706,6.092-8.089,27.847,6.382,44.115c14.555,16.363,36.089,33.757,58.886,52.172
		c56.893,45.956,121.373,98.042,121.373,171.686c0,120.425,4.955,424.396,5.127,434.879c0.494,16.731,6.77,29.975,19.178,40.482
		c8.958,7.586,18.124,11.065,18.207,11.092c1.267,0.403,2.514,0.867,3.738,1.388c46.285,19.724,93.706,18.346,120.812-3.509
		c0.545-0.438,1.101-0.864,1.666-1.275c21.55-15.67,32.126-47.166,34.443-58.219c0.047-0.258,0.032-0.164,0.104-0.508
		c63.593-306.399,180.31-429.955,185.247-435.065c0.134-0.138,0.269-0.276,0.406-0.413
		c291.036-293.036,335.959-562.37,141.369-847.591c-200.043-287.062-548.626-296.791-721.402-235.483
		c-203.754,73.138-349.792,218.712-400.662,399.408c-58.313,207.135,8.777,444.504,188.908,668.382
		c1.56,1.938,2.944,4.01,4.138,6.192c83.861,153.262,90.397,265.57,95.169,347.573c4.912,84.394,7.378,126.753,77.268,174.836
		c67.667,46.554,179.062,78.577,277.343,106.833c127.525,36.66,219.665,63.149,246.812,119.902
		c9.832,20.552,10.181,42.93,1.011,64.709c-7.411,17.598-25.563,38.961-69.957,40.807c-19.802,0.811-45.024-2.153-77.104-9.093
		c-55.001-11.903-125.011-34.357-192.714-56.071c-55.736-17.877-113.371-36.362-160.299-48.166
		c-10.822-2.723-20.342-4.895-28.697-6.62c8.905,4.294,19.536,9.028,32.224,14.189c47.563,19.348,108.577,38.554,167.583,57.13
		c68.967,21.711,134.109,42.219,183.719,64.104c29.294,12.923,50.842,25.417,65.877,38.197
		c34.571,29.386,33.264,59.65,29.408,75.077c-4.373,17.49-15.734,32.075-31.988,41.067c-53.482,29.584-157.973-2.104-324.031-56.259
		c-40.414-13.18-78.764-25.686-111.368-34.957c3.355,1.771,6.91,3.575,10.674,5.405c47.866,23.265,112.245,43.03,174.504,62.145
		c50.969,15.648,99.111,30.429,135.315,46.392c22.354,9.856,38.372,19.3,50.409,29.721c27.571,23.866,28.531,49.525,26.65,62.696
		c-2.893,20.251-14.495,37.305-32.668,48.02c-12.285,7.244-29.973,13.739-61.957,13.742c-34.146,0.001-84.593-7.399-162.216-29.197
		c-29.046-8.156-56.817-16.905-80.307-24.7c8.553,29.175,23.254,59.107,47.513,73.684c29.101,17.483,72.244,12.153,128.232-15.84
		c20.825-10.417,46.155-1.971,56.57,18.857c10.414,20.829,1.973,46.156-18.858,56.57
		C2592.546,3562.052,2550.124,3573.678,2512.079,3573.678z"/>
</g>
</svg>
